<svg height="512pt" preserveAspectRatio="xMidYMid meet" viewBox="0 0 512 512" width="512pt" xmlns="http://www.w3.org/2000/svg"><path d="m59361 108746c-77-77-4241-133-9254-126-11097 16-10456 152-13185-2808-1163-1262-2831-2821-3708-3465-876-644-1954-1588-2395-2098-1272-1468-5217-5504-8607-8806l-3116-3034-5-7931c-2-4362-16-8734-31-9715-14-982-1-5171 29-9308 31-4137-62-8423-206-9524-218-1664-198-2092 118-2543 308-440 379-1606 379-6221v-5679l2734-2615c1504-1439 5197-5025 8208-7970 3010-2946 6047-5872 6748-6503s1875-1750 2608-2486l1333-1339 4421-5c2431-2 12109-18 21506-36 25967-49 24364-96 25437 757 1454 1155 19225 18743 19503 19302 163 327 262 9684 275 26156l22 25647-4080 4061c-2243 2233-6684 6682-9868 9886-6995 7038-6223 6572-10399 6275-2029-145-7851-140-15153 12-14236 296-13144 286-13314 116zm11668-20355c2656-707 3228-1483 3247-4403 10-1631-76-1985-702-2888l-713-1030-2834 1c-4175 2-5586 599-6710 2838-1226 2442-1037 4220 581 5444 644 488 5350 513 7131 38zm21142 191c1326-509 1519-5465 290-7455-72-116-2791-224-6043-240l-5911-30-803 818c-1774 1807-1708 4858 139 6412l776 653h5570c3063 0 5755-71 5982-158zm-35561-1688c1818-771 1907-1033 1962-5769 28-2333 85-4988 128-5900l78-1657-2892-3c-3333-3-3101-171-3282 2370-159 2224-412 2647-1998 3349-3092 1368-4073 5178-1934 7508l671 730 3187-125c1983-77 3525-268 4080-503zm-10460-6722 1016-918-59-4501c-33-2475-17-8000 35-12278 51-4278 7-9525-100-11661-246-4961-490-4659 3771-4659h3320l1238-1239c1449-1448 1694-2984 730-4565-1096-1797-1332-1844-9384-1845l-7215-1-638 638-638 637-9 10901c-28 33625-451 30409 4002 30409h2915zm46164-5716c797-797 895-6142 135-7373-67-108-3248-259-7070-336-7807-158-7084-302-9419 1882-1815 1698-892 5321 1356 5321 337 0 755 143 930 319 326 327 3797 540 10313 634 2921 41 3313-5 3755-447zm328-14729c593-1016 746-4930 228-5855-436-778-641-804-7317-936-3632-72-6157-231-6630-418-737-289-825-244-2337 1194-2827 2691-2868 4503-143 6231l1189 755 7261-68 7261-67zm-16-13253c923-1044 760-6417-220-7230-625-519-10839-588-12376-83-2261 741-3203 2709-2506 5234 557 2015 894 2125 6965 2280 2969 76 5926 162 6570 191 845 39 1282-70 1567-392zm-22626-1457c3164-2100 4258-4739 2692-6493l-748-838-4033 95c-5768 135-6788 735-7109 4178-158 1697-130 1841 520 2613l688 818 2591 18c1426 10 2821 116 3102 237 787 339 878 314 2297-628z" transform="matrix(.003922 0 0 -.003922 0 512)"/></svg>